<?xml version="1.0" encoding="UTF-8" standalone="no"?>
<!-- Created with Inkscape (http://www.inkscape.org/) -->

<svg
   xmlns:dc="http://purl.org/dc/elements/1.1/"
   xmlns:cc="http://creativecommons.org/ns#"
   xmlns:rdf="http://www.w3.org/1999/02/22-rdf-syntax-ns#"
   xmlns:svg="http://www.w3.org/2000/svg"
   xmlns="http://www.w3.org/2000/svg"
   xmlns:sodipodi="http://sodipodi.sourceforge.net/DTD/sodipodi-0.dtd"
   xmlns:inkscape="http://www.inkscape.org/namespaces/inkscape"
   width="52"
   height="40"
   viewBox="0 0 48.750001 37.5"
   id="svg2"
   version="1.1"
   inkscape:version="0.92.1 unknown"
   sodipodi:docname="logo.svg">
  <defs
     id="defs4" />
  <sodipodi:namedview
     id="base"
     pagecolor="#ffffff"
     bordercolor="#666666"
     borderopacity="1.0"
     inkscape:pageopacity="0.0"
     inkscape:pageshadow="2"
     inkscape:zoom="16.530617"
     inkscape:cx="38.979256"
     inkscape:cy="20.829466"
     inkscape:document-units="px"
     inkscape:current-layer="layer1"
     showgrid="false"
     showguides="false"
     inkscape:snap-center="true"
     inkscape:snap-object-midpoints="true"
     inkscape:snap-page="true"
     inkscape:snap-global="true"
     inkscape:snap-bbox="true"
     inkscape:object-paths="false"
     inkscape:snap-intersection-paths="false"
     inkscape:object-nodes="true"
     inkscape:snap-smooth-nodes="false"
     inkscape:snap-midpoints="false"
     inkscape:window-width="1920"
     inkscape:window-height="1019"
     inkscape:window-x="0"
     inkscape:window-y="0"
     inkscape:window-maximized="1"
     fit-margin-top="0"
     fit-margin-left="0"
     fit-margin-right="0"
     fit-margin-bottom="0"
     inkscape:showpageshadow="true"
     showborder="true"
     units="px" />
  <metadata
     id="metadata7">
    <rdf:RDF>
      <cc:Work
         rdf:about="">
        <dc:format>image/svg+xml</dc:format>
        <dc:type
           rdf:resource="http://purl.org/dc/dcmitype/StillImage" />
        <dc:title></dc:title>
      </cc:Work>
    </rdf:RDF>
  </metadata>
  <g
     inkscape:label="Layer 1"
     inkscape:groupmode="layer"
     id="layer1"
     transform="translate(-5839.6348,-4891.8234)">
    <path
       sodipodi:nodetypes="ccc"
       inkscape:connector-curvature="0"
       id="path4493"
       d="m 5881.0277,4900.9912 -12.4659,10.9772 -24.9369,-11.3937"
       style="fill:none;fill-rule:evenodd;stroke:#37474f;stroke-width:1.4763689;stroke-linecap:butt;stroke-linejoin:miter;stroke-miterlimit:4;stroke-dasharray:none;stroke-opacity:1" />
    <path
       sodipodi:nodetypes="ccc"
       inkscape:connector-curvature="0"
       id="path4495"
       d="m 5850.4479,4912.8444 18.1139,-0.876 15.8328,12.0514"
       style="fill:none;fill-rule:evenodd;stroke:#37474f;stroke-width:1.4763689;stroke-linecap:butt;stroke-linejoin:miter;stroke-miterlimit:4;stroke-dasharray:none;stroke-opacity:1" />
    <path
       sodipodi:nodetypes="ccc"
       inkscape:connector-curvature="0"
       id="path4497"
       d="m 5860.745,4895.8136 7.8168,16.1548 -18.1425,13.3648"
       style="fill:none;fill-rule:evenodd;stroke:#37474f;stroke-width:1.4763689;stroke-linecap:butt;stroke-linejoin:miter;stroke-miterlimit:4;stroke-dasharray:none;stroke-opacity:1" />
    <circle
       inkscape:transform-center-x="-466.53745"
       inkscape:transform-center-y="-258.67722"
       transform="rotate(-48.222872)"
       style="opacity:1;fill:#1976d2;fill-opacity:1;stroke:none;stroke-width:1.64040983;stroke-linecap:round;stroke-linejoin:miter;stroke-miterlimit:4;stroke-dasharray:none;stroke-opacity:1"
       id="circle4499"
       cx="263.27045"
       cy="7650.9404"
       r="3.9901876" />
    <circle
       r="9.4197779"
       cy="4911.5483"
       cx="5868.272"
       id="circle4501"
       style="opacity:1;fill:#37474f;fill-opacity:1;stroke:none;stroke-width:1.23030722;stroke-linecap:round;stroke-linejoin:miter;stroke-miterlimit:4;stroke-dasharray:none;stroke-opacity:1" />
    <circle
       r="3.9901874"
       cy="3619.3293"
       cx="6765.5396"
       id="circle4503"
       style="opacity:1;fill:#d32f2f;fill-opacity:1;stroke:none;stroke-width:1.64040959;stroke-linecap:round;stroke-linejoin:miter;stroke-miterlimit:4;stroke-dasharray:none;stroke-opacity:1"
       transform="rotate(11.777116)"
       inkscape:transform-center-x="-557.42714"
       inkscape:transform-center-y="362.99905" />
    <circle
       inkscape:transform-center-y="398.45416"
       inkscape:transform-center-x="359.76713"
       transform="rotate(71.777117)"
       style="opacity:1;fill:#00796b;fill-opacity:1;stroke:none;stroke-width:1.64040995;stroke-linecap:round;stroke-linejoin:miter;stroke-miterlimit:4;stroke-dasharray:none;stroke-opacity:1"
       id="circle4505"
       cx="6507.8237"
       cy="-4016.7825"
       r="3.9901881" />
    <circle
       inkscape:transform-center-x="81.016871"
       r="3.9901876"
       cy="-7632.3652"
       cx="-253.61852"
       id="circle4507"
       style="opacity:1;fill:#388e3c;fill-opacity:1;stroke:none;stroke-width:1.64040983;stroke-linecap:round;stroke-linejoin:miter;stroke-miterlimit:4;stroke-dasharray:none;stroke-opacity:1"
       transform="rotate(131.77713)"
       inkscape:transform-center-y="-398.45403" />
    <circle
       inkscape:transform-center-y="61.308244"
       inkscape:transform-center-x="358.99544"
       transform="rotate(-168.22288)"
       style="opacity:1;fill:#f57c00;fill-opacity:1;stroke:none;stroke-width:1.64040959;stroke-linecap:round;stroke-linejoin:miter;stroke-miterlimit:4;stroke-dasharray:none;stroke-opacity:1"
       id="circle4509"
       cx="-6730.0264"
       cy="-3615.3179"
       r="3.9901874" />
    <circle
       r="3.9901881"
       cy="4018.0715"
       cx="-6482.1821"
       id="circle4511"
       style="opacity:1;fill:#7b1fa2;fill-opacity:1;stroke:none;stroke-width:1.64040995;stroke-linecap:round;stroke-linejoin:miter;stroke-miterlimit:4;stroke-dasharray:none;stroke-opacity:1"
       transform="rotate(-108.22288)"
       inkscape:transform-center-x="557.4271"
       inkscape:transform-center-y="-269.93196" />
    <path
       style="fill:#ffffff;stroke-width:0.04101024"
       inkscape:connector-curvature="0"
       unicode="ï†"
       horiz-adv-x="2304"
       d="m 5872.1081,4911.2099 0.1015,1.782 q 0.023,0.3891 -0.4624,0.7218 -0.485,0.3327 -1.3252,0.5273 -0.8403,0.1946 -1.8215,0.1946 -0.9813,0 -1.8215,-0.1946 -0.8403,-0.1946 -1.3253,-0.5273 -0.485,-0.3327 -0.4624,-0.7218 l 0.1015,-1.782 3.237,1.0207 q 0.124,0.039 0.2707,0.039 0.1466,0 0.2707,-0.039 z m 2.9889,-1.8272 q 0,0.1297 -0.1241,0.1748 l -6.316,1.9851 q -0.023,0.01 -0.056,0.01 -0.034,0 -0.056,-0.01 l -3.6769,-1.1617 q -0.2425,0.1917 -0.4004,0.6288 -0.1579,0.437 -0.1917,1.0066 0.3553,0.203 0.3553,0.6147 0,0.3891 -0.3271,0.6034 l 0.3271,2.4418 q 0.011,0.079 -0.045,0.141 -0.051,0.062 -0.1354,0.062 h -1.0827 q -0.085,0 -0.1354,-0.062 -0.056,-0.062 -0.045,-0.141 l 0.3271,-2.4418 q -0.3271,-0.2143 -0.3271,-0.6034 0,-0.4117 0.3666,-0.626 0.062,-1.1673 0.5526,-1.861 l -1.8779,-0.5865 q -0.124,-0.045 -0.124,-0.1748 0,-0.1297 0.124,-0.1748 l 6.3161,-1.985 q 0.023,-0.01 0.056,-0.01 0.034,0 0.056,0.01 l 6.316,1.985 q 0.1241,0.045 0.1241,0.1748 z"
       id="path4513" />
  </g>
</svg>
