<svg viewBox="0 0 32 36" version="1.1">
  <path
     style="opacity:1;fill:#2e7d32;fill-opacity:1;stroke:none"
     d="M 4.6863324,8.6866014 C 1.6859289,11.687118 1.916665e-6,15.756897 1.916665e-6,20.000307 c 0,0.528792 0.026456573335,1.054862 0.078235883335,1.576548 1.6873254,-0.967706 3.4578757,-1.778903 5.289465,-2.424217 0.2006921,-2.518629 1.2904389,-4.895187 3.0900574,-6.694726 2.0002988,-2.000382 4.7133808,-3.1240306 7.5423908,-3.1240306 2.829018,0 5.542095,1.1236486 7.542394,3.1240306 1.799608,1.799539 2.889362,4.176097 3.09005,6.694726 1.831612,0.645314 3.602166,1.456511 5.289473,2.424217 0.05197,-0.521686 0.07793,-1.047756 0.07793,-1.576548 0,-4.24341 -1.685734,-8.313189 -4.686141,-11.3137056 C 23.218653,4.5764204 17.671875,3.4622574 16,7.335e-5 14.328121,3.4622574 8.7815548,4.5764204 4.6863324,8.6866014 Z" />
  <path
     style="opacity:1;fill:#37474f;fill-opacity:1;stroke:none"
     d="m 16,14.667982 c -1.414415,0 -2.771263,0.560368 -3.771469,1.560541 -1.000105,1.000172 -1.562494,2.356987 -1.562494,3.771469 0,1.414444 0.562389,2.771297 1.562494,3.771468 1.000206,1.000174 2.357054,1.562494 3.771469,1.562494 1.414414,0 2.771258,-0.56232 3.771468,-1.562494 1.000097,-1.000171 1.562494,-2.357024 1.562494,-3.771468 0,-1.414482 -0.562397,-2.771297 -1.562494,-3.771469 -1.00021,-1.000173 -2.357054,-1.560541 -3.771468,-1.560541 z m -9.6776953,9.816367 c -1.6582988,0.645805 -3.2498423,1.457095 -4.7519338,2.423818 0.7751023,1.618992 1.8217972,3.112807 3.1152217,4.406232 3.000585,3.000516 7.0710924,4.685528 11.3144074,4.685528 4.243322,0 8.313818,-1.685012 11.314406,-4.685528 1.293414,-1.293425 2.340112,-2.78724 3.115223,-4.406232 -1.502107,-0.966723 -3.093629,-1.778013 -4.751935,-2.423818 -0.521886,1.126067 -1.240248,2.164122 -2.134756,3.058581 -2.0003,2.000345 -4.714023,3.123034 -7.542938,3.123034 -2.828909,0 -5.542639,-1.122689 -7.5429384,-3.123034 C 7.5625551,26.648471 6.8442195,25.610416 6.3223067,24.484349 Z" />
</svg>
